<svg id="Layer_1" data-name="Layer 1" xmlns="http://www.w3.org/2000/svg" viewBox="0 0 144 108"><defs><style>.cls-1{fill:#fff;fill-opacity:0.8;opacity:0.75;}.cls-2{fill:#769bbd;}</style></defs><title>card-test</title><path class="cls-1" d="M0,0H144V108H0Z"/><path class="cls-2" d="M65.66,75.35l13.94,0V64.51c0-3,1.38-5.76,5-8.17s13.9-7.27,13.9-20.07S87.78,14.65,78.75,12.76s-18.83-.61-25.76,7c-6.24,6.82-7.51,12.2-7.51,24.08H59.41V41c0-6.28.73-13,9.76-14.83A13.81,13.81,0,0,1,81.5,29.46c3.16,3.09,3.19,10-1.85,13.41L71.8,48.2c-4.58,3-6.14,6.27-6.14,11V75.35Z"/><path class="cls-2" d="M65.57,81.64H79.7V96H65.57Z"/></svg>