<?xml version="1.0" encoding="utf-8"?>
<!-- Generator: Adobe Illustrator 20.1.0, SVG Export Plug-In . SVG Version: 6.00 Build 0)  -->
<svg version="1.1" id="Layer_1" xmlns="http://www.w3.org/2000/svg" xmlns:xlink="http://www.w3.org/1999/xlink" x="0px" y="0px"
	 viewBox="0 0 480 360" style="enable-background:new 0 0 480 360;" xml:space="preserve">
<style type="text/css">
	.st0{opacity:0.5;fill:#FFFFFF;}
	.st1{opacity:0.5;}
	.st2{fill:#414042;}
</style>
<rect x="1" class="st0" width="480" height="360"/>
<g class="st1">
	<path class="st2" d="M223,228v-19c0-32.9,45.4-47.3,45.4-83.7c0-22.5-21.6-33.8-39-33.8c-24.8,0-39.6,12.6-41.9,37
		c5.2-4.8,11-7.7,18-7.7c10.6,0,21.3,8.1,21.3,21.9c0,12.6-9.3,22.9-25.1,22.9c-21.3,0-33.8-17.1-33.8-37.4
		c0-39,34.8-60.6,70.5-60.6c34.5,0,75.7,17.7,75.7,58.3c0,52.2-70.5,54.8-70.5,95.3v6.8H223z M232.6,244.7
		c13.5,0,23.8,10.3,23.8,23.8s-10.3,23.8-23.8,23.8s-23.8-10.3-23.8-23.8S219.1,244.7,232.6,244.7z"/>
</g>
</svg>
